<svg xmlns="http://www.w3.org/2000/svg" width="168" height="18" fill="none" viewBox="0 0 168 18"><rect width="167.75" height="18" fill="#55FFD9"/><path stroke="#000" stroke-linecap="round" stroke-linejoin="round" stroke-width="1.25" d="M12.875 5.875L6.625 12.125M6.625 12.125H12.875M6.625 12.125V5.875"/><path fill="#000" d="M26.514 11.984H28.074V14.9H26.514V11.984ZM27.294 12.656C26.262 12.656 25.378 12.496 24.642 12.176C23.914 11.848 23.354 11.384 22.962 10.784C22.578 10.184 22.386 9.464 22.386 8.624C22.386 7.776 22.578 7.052 22.962 6.452C23.354 5.852 23.914 5.392 24.642 5.072C25.378 4.744 26.262 4.58 27.294 4.58C28.334 4.58 29.218 4.744 29.946 5.072C30.674 5.392 31.23 5.852 31.614 6.452C32.006 7.052 32.202 7.776 32.202 8.624C32.202 9.464 32.006 10.184 31.614 10.784C31.23 11.384 30.674 11.848 29.946 12.176C29.218 12.496 28.334 12.656 27.294 12.656ZM27.294 11.276C27.934 11.276 28.494 11.18 28.974 10.988C29.462 10.796 29.842 10.504 30.114 10.112C30.394 9.72 30.534 9.224 30.534 8.624C30.534 8.024 30.394 7.528 30.114 7.136C29.842 6.744 29.462 6.452 28.974 6.26C28.494 6.06 27.934 5.96 27.294 5.96C26.662 5.96 26.098 6.06 25.602 6.26C25.106 6.452 24.718 6.744 24.438 7.136C24.158 7.528 24.018 8.024 24.018 8.624C24.018 9.224 24.158 9.72 24.438 10.112C24.718 10.504 25.106 10.796 25.602 10.988C26.098 11.18 26.662 11.276 27.294 11.276ZM40.8879 9.068V4.736H42.4839V9.236C42.4839 9.748 42.4079 10.196 42.2559 10.58C42.1119 10.964 41.9039 11.288 41.6319 11.552C41.3599 11.816 41.0399 12.032 40.6719 12.2C40.3119 12.36 39.9159 12.476 39.4839 12.548C39.0599 12.62 38.6119 12.656 38.1399 12.656C37.6519 12.656 37.1879 12.62 36.7479 12.548C36.3079 12.476 35.9039 12.36 35.5359 12.2C35.1759 12.032 34.8639 11.816 34.5999 11.552C34.3359 11.288 34.1279 10.964 33.9759 10.58C33.8319 10.196 33.7599 9.748 33.7599 9.236V4.736H35.3559V9.068C35.3559 9.676 35.4759 10.14 35.7159 10.46C35.9559 10.772 36.2839 10.988 36.6999 11.108C37.1239 11.22 37.6039 11.276 38.1399 11.276C38.6599 11.276 39.1239 11.22 39.5319 11.108C39.9479 10.988 40.2759 10.772 40.5159 10.46C40.7639 10.14 40.8879 9.676 40.8879 9.068ZM45.9263 9.26V11.168H51.9143V12.5H44.3303V4.736H51.9023V6.068H45.9263V8H50.8223V9.26H45.9263ZM53.5529 12.5V4.736H58.8209C59.4209 4.736 59.9409 4.82 60.3809 4.988C60.8289 5.148 61.1769 5.404 61.4249 5.756C61.6729 6.1 61.7969 6.544 61.7969 7.088C61.7969 7.456 61.7329 7.768 61.6049 8.024C61.4769 8.28 61.2969 8.488 61.0649 8.648C60.8409 8.808 60.5809 8.932 60.2849 9.02C59.9889 9.1 59.6729 9.152 59.3369 9.176L59.1689 9.08C59.7289 9.088 60.1889 9.136 60.5489 9.224C60.9089 9.304 61.1769 9.456 61.3529 9.68C61.5369 9.896 61.6289 10.22 61.6289 10.652V12.5H60.0329V10.76C60.0329 10.464 59.9809 10.236 59.8769 10.076C59.7729 9.908 59.5849 9.792 59.3129 9.728C59.0489 9.664 58.6649 9.632 58.1609 9.632H55.1489V12.5H53.5529ZM55.1489 8.384H58.8209C59.2689 8.384 59.6089 8.276 59.8409 8.06C60.0809 7.844 60.2009 7.552 60.2009 7.184C60.2009 6.832 60.0809 6.564 59.8409 6.38C59.6089 6.196 59.2689 6.104 58.8209 6.104H55.1489V8.384ZM71.0426 4.736L67.6346 10.052V12.5H66.0266V10.052L62.6186 4.736H64.4666L67.3346 9.38H66.3746L69.1946 4.736H71.0426ZM84.152 9.704C84.08 10.328 83.86 10.86 83.492 11.3C83.124 11.74 82.624 12.076 81.992 12.308C81.36 12.54 80.608 12.656 79.736 12.656C79.008 12.656 78.34 12.572 77.732 12.404C77.132 12.236 76.612 11.984 76.172 11.648C75.74 11.312 75.404 10.896 75.164 10.4C74.924 9.896 74.804 9.308 74.804 8.636C74.804 7.964 74.924 7.376 75.164 6.872C75.404 6.368 75.74 5.948 76.172 5.612C76.612 5.268 77.132 5.012 77.732 4.844C78.34 4.668 79.008 4.58 79.736 4.58C80.608 4.58 81.36 4.7 81.992 4.94C82.632 5.18 83.136 5.524 83.504 5.972C83.872 6.412 84.088 6.948 84.152 7.58H82.568C82.464 7.244 82.288 6.956 82.04 6.716C81.8 6.468 81.488 6.28 81.104 6.152C80.72 6.024 80.264 5.96 79.736 5.96C79.08 5.96 78.504 6.064 78.008 6.272C77.512 6.472 77.128 6.772 76.856 7.172C76.584 7.564 76.448 8.052 76.448 8.636C76.448 9.212 76.584 9.696 76.856 10.088C77.128 10.48 77.512 10.78 78.008 10.988C78.504 11.188 79.08 11.288 79.736 11.288C80.264 11.288 80.716 11.224 81.092 11.096C81.476 10.968 81.788 10.784 82.028 10.544C82.276 10.304 82.456 10.024 82.568 9.704H84.152ZM90.3292 12.656C89.2972 12.656 88.4132 12.496 87.6772 12.176C86.9492 11.848 86.3892 11.384 85.9972 10.784C85.6132 10.184 85.4212 9.464 85.4212 8.624C85.4212 7.776 85.6132 7.052 85.9972 6.452C86.3892 5.852 86.9492 5.392 87.6772 5.072C88.4132 4.744 89.2972 4.58 90.3292 4.58C91.3692 4.58 92.2532 4.744 92.9812 5.072C93.7092 5.392 94.2652 5.852 94.6492 6.452C95.0412 7.052 95.2372 7.776 95.2372 8.624C95.2372 9.464 95.0412 10.184 94.6492 10.784C94.2652 11.384 93.7092 11.848 92.9812 12.176C92.2532 12.496 91.3692 12.656 90.3292 12.656ZM90.3292 11.276C90.9692 11.276 91.5292 11.18 92.0092 10.988C92.4972 10.796 92.8772 10.504 93.1492 10.112C93.4292 9.72 93.5692 9.224 93.5692 8.624C93.5692 8.024 93.4292 7.528 93.1492 7.136C92.8772 6.744 92.4972 6.452 92.0092 6.26C91.5292 6.06 90.9692 5.96 90.3292 5.96C89.6972 5.96 89.1332 6.06 88.6372 6.26C88.1412 6.452 87.7532 6.744 87.4732 7.136C87.1932 7.528 87.0532 8.024 87.0532 8.624C87.0532 9.224 87.1932 9.72 87.4732 10.112C87.7532 10.504 88.1412 10.796 88.6372 10.988C89.1332 11.18 89.6972 11.276 90.3292 11.276ZM104.667 10.916L104.163 11.12V4.736H105.759V12.5H104.163L97.8871 6.368L98.3911 6.164V12.5H96.7951V4.736H98.3911L104.667 10.916ZM106.928 4.736H115.112V6.068H106.928V4.736ZM110.228 5.9H111.824V12.5H110.228V5.9ZM116.272 12.5V4.736H121.54C122.14 4.736 122.66 4.82 123.1 4.988C123.548 5.148 123.896 5.404 124.144 5.756C124.392 6.1 124.516 6.544 124.516 7.088C124.516 7.456 124.452 7.768 124.324 8.024C124.196 8.28 124.016 8.488 123.784 8.648C123.56 8.808 123.3 8.932 123.004 9.02C122.708 9.1 122.392 9.152 122.056 9.176L121.888 9.08C122.448 9.088 122.908 9.136 123.268 9.224C123.628 9.304 123.896 9.456 124.072 9.68C124.256 9.896 124.348 10.22 124.348 10.652V12.5H122.752V10.76C122.752 10.464 122.7 10.236 122.596 10.076C122.492 9.908 122.304 9.792 122.032 9.728C121.768 9.664 121.384 9.632 120.88 9.632H117.868V12.5H116.272ZM117.868 8.384H121.54C121.988 8.384 122.328 8.276 122.56 8.06C122.8 7.844 122.92 7.552 122.92 7.184C122.92 6.832 122.8 6.564 122.56 6.38C122.328 6.196 121.988 6.104 121.54 6.104H117.868V8.384ZM127.398 10.808V9.476H132.534V10.808H127.398ZM125.466 12.5L129.114 4.736H130.842L134.526 12.5H132.786L129.594 5.504H130.362L127.194 12.5H125.466ZM144.328 9.704C144.256 10.328 144.036 10.86 143.668 11.3C143.3 11.74 142.8 12.076 142.168 12.308C141.536 12.54 140.784 12.656 139.912 12.656C139.184 12.656 138.516 12.572 137.908 12.404C137.308 12.236 136.788 11.984 136.348 11.648C135.916 11.312 135.58 10.896 135.34 10.4C135.1 9.896 134.98 9.308 134.98 8.636C134.98 7.964 135.1 7.376 135.34 6.872C135.58 6.368 135.916 5.948 136.348 5.612C136.788 5.268 137.308 5.012 137.908 4.844C138.516 4.668 139.184 4.58 139.912 4.58C140.784 4.58 141.536 4.7 142.168 4.94C142.808 5.18 143.312 5.524 143.68 5.972C144.048 6.412 144.264 6.948 144.328 7.58H142.744C142.64 7.244 142.464 6.956 142.216 6.716C141.976 6.468 141.664 6.28 141.28 6.152C140.896 6.024 140.44 5.96 139.912 5.96C139.256 5.96 138.68 6.064 138.184 6.272C137.688 6.472 137.304 6.772 137.032 7.172C136.76 7.564 136.624 8.052 136.624 8.636C136.624 9.212 136.76 9.696 137.032 10.088C137.304 10.48 137.688 10.78 138.184 10.988C138.68 11.188 139.256 11.288 139.912 11.288C140.44 11.288 140.892 11.224 141.268 11.096C141.652 10.968 141.964 10.784 142.204 10.544C142.452 10.304 142.632 10.024 142.744 9.704H144.328ZM144.967 4.736H153.151V6.068H144.967V4.736ZM148.267 5.9H149.863V12.5H148.267V5.9ZM153.795 9.884H155.415C155.447 10.156 155.571 10.404 155.787 10.628C156.011 10.844 156.303 11.016 156.663 11.144C157.023 11.264 157.427 11.324 157.875 11.324C158.283 11.324 158.619 11.28 158.883 11.192C159.147 11.104 159.343 10.98 159.471 10.82C159.599 10.66 159.663 10.468 159.663 10.244C159.663 10.028 159.583 9.864 159.423 9.752C159.263 9.632 159.011 9.536 158.667 9.464C158.323 9.384 157.871 9.304 157.311 9.224C156.871 9.16 156.455 9.072 156.063 8.96C155.671 8.84 155.323 8.688 155.019 8.504C154.723 8.32 154.487 8.096 154.311 7.832C154.143 7.56 154.059 7.24 154.059 6.872C154.059 6.416 154.187 6.016 154.443 5.672C154.707 5.328 155.095 5.06 155.607 4.868C156.119 4.676 156.747 4.58 157.491 4.58C158.611 4.58 159.471 4.82 160.071 5.3C160.679 5.772 160.975 6.424 160.959 7.256H159.399C159.367 6.784 159.167 6.444 158.799 6.236C158.439 6.028 157.983 5.924 157.431 5.924C156.919 5.924 156.495 6 156.159 6.152C155.831 6.304 155.667 6.564 155.667 6.932C155.667 7.076 155.707 7.204 155.787 7.316C155.867 7.42 156.003 7.512 156.195 7.592C156.387 7.672 156.647 7.748 156.975 7.82C157.303 7.892 157.711 7.964 158.199 8.036C158.655 8.1 159.067 8.188 159.435 8.3C159.811 8.404 160.131 8.544 160.395 8.72C160.667 8.888 160.875 9.104 161.019 9.368C161.163 9.632 161.235 9.956 161.235 10.34C161.235 10.812 161.111 11.224 160.863 11.576C160.623 11.92 160.247 12.188 159.735 12.38C159.231 12.572 158.575 12.668 157.767 12.668C157.191 12.668 156.683 12.608 156.243 12.488C155.803 12.36 155.423 12.192 155.103 11.984C154.783 11.776 154.523 11.548 154.323 11.3C154.123 11.052 153.979 10.804 153.891 10.556C153.811 10.308 153.779 10.084 153.795 9.884Z"/></svg>