<svg xmlns="http://www.w3.org/2000/svg" width="107" height="16" fill="none" viewBox="0 0 107 16"><rect width="105.07" height="15" x=".5" y=".5" stroke="#626262"/><path fill="#626262" d="M8.45067 11L10.0907 4.6H11.5787L13.2187 11H12.2667L10.8507 5.28H10.7707L9.34667 11H8.45067ZM9.45067 8.832V7.968H12.2187V8.832H9.45067ZM14.3242 11V4.6H15.8762L17.6522 10.416H17.7402L17.7082 8.576V4.6H18.5482V11H16.9962L15.2202 5.184H15.1322L15.1642 7.024V11H14.3242ZM21.5818 11V5.456H19.6938V4.6H24.3818V5.456H22.4938V11H21.5818ZM25.5834 11V10.144H27.1834V5.456H25.5834V4.6H29.6954V5.456H28.0954V10.144H29.6954V11H25.5834ZM31.5449 4.6H32.4569V11H31.5449V4.6ZM34.4329 11L32.1849 7.904L34.5769 4.6H35.6329L33.2649 7.864L35.5449 11H34.4329ZM37.3545 4.6L38.7385 7.16L38.8265 7.448H38.9065L38.9865 7.16L40.3945 4.6H41.3145L39.2985 8.256V11H38.3865V8.256L36.3705 4.6H37.3545ZM43.988 11V5.456H42.1V4.6H46.788V5.456H44.9V11H43.988ZM47.9896 11V4.6H48.9016V7.344H51.1896V4.6H52.1016V11H51.1896V8.208H48.9016V11H47.9896ZM53.9672 11V4.6H57.7512V5.456H54.8792V7.376H57.3512V8.176H54.8792V10.144H57.6712V11H53.9672ZM59.3687 11V4.6H61.5367C61.9474 4.6 62.3047 4.67467 62.6087 4.824C62.9127 4.97333 63.1474 5.18667 63.3127 5.464C63.4834 5.74133 63.5687 6.06933 63.5687 6.448C63.5687 6.80533 63.4834 7.11733 63.3127 7.384C63.1421 7.65067 62.9047 7.86133 62.6007 8.016C62.2967 8.16533 61.9421 8.24 61.5367 8.24H60.2807V11H59.3687ZM62.6887 11L60.9607 8.08H61.9447L63.7287 11H62.6887ZM60.2807 7.448H61.5527C61.8887 7.448 62.1554 7.35733 62.3527 7.176C62.5554 6.99467 62.6567 6.75467 62.6567 6.456C62.6567 6.152 62.5554 5.90933 62.3527 5.728C62.1554 5.54667 61.8887 5.456 61.5527 5.456H60.2807V7.448ZM64.4663 11L66.1063 4.6H67.5943L69.2343 11H68.2823L66.8663 5.28H66.7863L65.3623 11H64.4663ZM65.4663 8.832V7.968H68.2343V8.832H65.4663ZM76.6214 4.6L78.0374 10.32H78.1174L79.5414 4.6H80.4374L78.7974 11H77.3094L75.6694 4.6H76.6214ZM83.655 11.128C82.8763 11.128 82.2923 10.8507 81.903 10.296C81.5136 9.74133 81.319 8.90933 81.319 7.8C81.319 6.69067 81.5136 5.85867 81.903 5.304C82.2923 4.74933 82.8763 4.472 83.655 4.472C84.4336 4.472 85.0176 4.74933 85.407 5.304C85.7963 5.85867 85.991 6.69067 85.991 7.8C85.991 8.90933 85.7963 9.74133 85.407 10.296C85.0176 10.8507 84.4336 11.128 83.655 11.128ZM83.655 10.272C84.1456 10.272 84.5056 10.072 84.735 9.672C84.9643 9.272 85.079 8.648 85.079 7.8C85.079 6.952 84.9643 6.328 84.735 5.928C84.5056 5.528 84.1456 5.328 83.655 5.328C83.1643 5.328 82.8043 5.528 82.575 5.928C82.3456 6.328 82.231 6.952 82.231 7.8C82.231 8.648 82.3456 9.272 82.575 9.672C82.8043 10.072 83.1643 10.272 83.655 10.272ZM81.967 8.544L85.311 6.016V7.056L81.967 9.584V8.544ZM89.2565 11.064C89.0219 11.064 88.8405 10.9973 88.7125 10.864C88.5845 10.7307 88.5205 10.5413 88.5205 10.296C88.5205 10.056 88.5845 9.86933 88.7125 9.736C88.8405 9.60267 89.0219 9.536 89.2565 9.536C89.4912 9.536 89.6725 9.60267 89.8005 9.736C89.9285 9.86933 89.9925 10.056 89.9925 10.296C89.9925 10.5413 89.9285 10.7307 89.8005 10.864C89.6725 10.9973 89.4912 11.064 89.2565 11.064ZM95.5541 4.6V10.144H97.1221V11H92.9141V10.144H94.6421V4.984L94.8981 5.136L92.9141 6.424V5.448L94.2581 4.6H95.5541Z"/></svg>