<svg width="116" height="25" viewBox="0 0 116 25" fill="none" xmlns="http://www.w3.org/2000/svg">
<g clip-path="url(#clip0_97_2)">
<path d="M12.5078 0.805457C12.5078 0.387201 12.1684 0.0456542 11.751 0.0719836C10.431 0.155239 9.13209 0.455848 7.90702 0.96329C6.44837 1.56748 5.12302 2.45304 4.00664 3.56942C2.89025 4.68581 2.00469 6.01115 1.40051 7.46976C0.79632 8.92842 0.485351 10.4918 0.485352 12.0706C0.485352 13.6494 0.796321 15.2127 1.40051 16.6714C2.00469 18.13 2.89025 19.4553 4.00664 20.5717C5.12303 21.6881 6.44837 22.5736 7.90702 23.1778C9.13209 23.6853 10.431 23.9859 11.751 24.0692C12.1684 24.0955 12.5078 23.7539 12.5078 23.3356V0.805457Z" fill="#50E3C2"/>
<path d="M18.945 3.26661C18.945 2.84836 18.6053 2.50605 18.1885 2.54047C15.9799 2.72287 13.8965 3.69944 12.3182 5.30969C10.5606 7.10273 9.57324 9.53466 9.57324 12.0705C9.57324 14.6062 10.5606 17.0381 12.3182 18.8312C13.8965 20.4414 15.9799 21.418 18.1885 21.6004C18.6053 21.6348 18.945 21.2925 18.945 20.8743V3.26661Z" fill="#50E3C2"/>
<path d="M33.4879 14.5523L32.1417 15.8804V18.3394H29.3418V5.02173H32.1417V12.56L36.234 8.68317H39.5723L35.5519 12.7754L39.9313 18.3394H36.5391L33.4879 14.5523Z" fill="#50E3C2"/>
<path d="M50.5685 8.68315V18.3394H47.8942V17.2265C47.2002 18.0641 46.1951 18.483 44.8789 18.483C43.9695 18.483 43.1438 18.2795 42.402 17.8727C41.6721 17.4659 41.0978 16.8856 40.679 16.1318C40.2602 15.3779 40.0508 14.5044 40.0508 13.5113C40.0508 12.5182 40.2602 11.6446 40.679 10.8908C41.0978 10.137 41.6721 9.55662 42.402 9.14982C43.1438 8.74302 43.9695 8.53955 44.8789 8.53955C46.1113 8.53955 47.0746 8.92848 47.7686 9.70622V8.68315H50.5685ZM45.3634 16.1856C46.0694 16.1856 46.6558 15.9463 47.1224 15.4676C47.589 14.977 47.8224 14.325 47.8224 13.5113C47.8224 12.6976 47.589 12.0515 47.1224 11.5728C46.6558 11.0823 46.0694 10.837 45.3634 10.837C44.6455 10.837 44.0533 11.0823 43.5866 11.5728C43.1199 12.0515 42.8866 12.6976 42.8866 13.5113C42.8866 14.325 43.1199 14.977 43.5866 15.4676C44.0533 15.9463 44.6455 16.1856 45.3634 16.1856Z" fill="#50E3C2"/>
<path d="M59.0302 8.53955C60.2268 8.53955 61.19 8.89855 61.9199 9.61648C62.6618 10.3344 63.0327 11.3994 63.0327 12.8113V18.3394H60.2327V13.242C60.2327 12.4762 60.0653 11.9079 59.7302 11.537C59.3952 11.1541 58.9106 10.9626 58.2764 10.9626C57.5704 10.9626 57.0081 11.184 56.5893 11.6267C56.1705 12.0574 55.9611 12.7036 55.9611 13.5651V18.3394H53.1611V8.68315H55.8354V9.81388C56.2063 9.40708 56.667 9.09595 57.2175 8.88062C57.7679 8.65322 58.3721 8.53955 59.0302 8.53955Z" fill="#50E3C2"/>
<path d="M75.4759 8.68315V18.3394H72.8012V17.2265C72.1072 18.0641 71.1025 18.483 69.7859 18.483C68.8765 18.483 68.0512 18.2795 67.3092 17.8727C66.5793 17.4659 66.005 16.8856 65.5862 16.1318C65.1674 15.3779 64.958 14.5044 64.958 13.5113C64.958 12.5182 65.1674 11.6446 65.5862 10.8908C66.005 10.137 66.5793 9.55662 67.3092 9.14982C68.0512 8.74302 68.8765 8.53955 69.7859 8.53955C71.0185 8.53955 71.9819 8.92848 72.6759 9.70622V8.68315H75.4759ZM70.2705 16.1856C70.9765 16.1856 71.5632 15.9463 72.0299 15.4676C72.4965 14.977 72.7299 14.325 72.7299 13.5113C72.7299 12.6976 72.4965 12.0515 72.0299 11.5728C71.5632 11.0823 70.9765 10.837 70.2705 10.837C69.5525 10.837 68.9605 11.0823 68.4939 11.5728C68.0272 12.0515 67.7939 12.6976 67.7939 13.5113C67.7939 14.325 68.0272 14.977 68.4939 15.4676C68.9605 15.9463 69.5525 16.1856 70.2705 16.1856Z" fill="#50E3C2"/>
<path d="M81.2084 18.4291C80.3584 18.4291 79.7004 18.1898 79.2338 17.7112C78.7791 17.2326 78.5518 16.5685 78.5518 15.7189V5.02173H79.8264V15.6112C79.8264 16.1736 79.9578 16.6044 80.2211 16.9035C80.4844 17.1907 80.8791 17.3343 81.4058 17.3343C81.7404 17.3343 82.0278 17.2804 82.2671 17.1728L82.3571 18.2317C81.9858 18.3633 81.6031 18.4291 81.2084 18.4291Z" fill="#50E3C2"/>
<path d="M92.5305 8.89846V18.3393H91.3099V16.4727C90.9272 17.1068 90.4185 17.5915 89.7845 17.9265C89.1625 18.2615 88.4565 18.429 87.6665 18.429C86.7812 18.429 85.9792 18.2256 85.2619 17.8188C84.5439 17.4119 83.9812 16.8436 83.5745 16.1137C83.1679 15.3838 82.9639 14.5522 82.9639 13.6189C82.9639 12.6855 83.1679 11.8539 83.5745 11.1241C83.9812 10.3941 84.5439 9.83179 85.2619 9.43693C85.9792 9.03006 86.7812 8.82666 87.6665 8.82666C88.4325 8.82666 89.1205 8.98819 89.7305 9.31126C90.3532 9.62239 90.8612 10.0831 91.2565 10.6933V8.89846H92.5305ZM87.7745 17.2983C88.4325 17.2983 89.0245 17.1487 89.5512 16.8496C90.0899 16.5385 90.5085 16.1017 90.8079 15.5393C91.1185 14.9769 91.2745 14.3368 91.2745 13.6189C91.2745 12.9009 91.1185 12.2608 90.8079 11.6984C90.5085 11.136 90.0899 10.7053 89.5512 10.4061C89.0245 10.095 88.4325 9.93946 87.7745 9.93946C87.1045 9.93946 86.4999 10.095 85.9612 10.4061C85.4352 10.7053 85.0165 11.136 84.7052 11.6984C84.4059 12.2608 84.2565 12.9009 84.2565 13.6189C84.2565 14.3368 84.4059 14.9769 84.7052 15.5393C85.0165 16.1017 85.4352 16.5385 85.9612 16.8496C86.4999 17.1487 87.1045 17.2983 87.7745 17.2983Z" fill="#50E3C2"/>
<path d="M100.945 8.82678C101.83 8.82678 102.632 9.03017 103.35 9.43704C104.068 9.83191 104.63 10.3942 105.037 11.1242C105.444 11.854 105.647 12.6856 105.647 13.619C105.647 14.5523 105.444 15.3839 105.037 16.1138C104.63 16.8437 104.068 17.412 103.35 17.8189C102.632 18.2257 101.83 18.4291 100.945 18.4291C100.155 18.4291 99.4431 18.2616 98.8091 17.9266C98.1871 17.5916 97.6844 17.1069 97.3011 16.4728V18.3394H96.0811V5.02173H97.3551V10.6934C97.7497 10.0832 98.2524 9.62251 98.863 9.31138C99.485 8.98831 100.179 8.82678 100.945 8.82678ZM100.855 17.2984C101.513 17.2984 102.112 17.1488 102.65 16.8497C103.188 16.5386 103.607 16.1018 103.906 15.5394C104.217 14.977 104.373 14.3369 104.373 13.619C104.373 12.901 104.217 12.2609 103.906 11.6985C103.607 11.1361 103.188 10.7054 102.65 10.4062C102.112 10.0951 101.513 9.93957 100.855 9.93957C100.185 9.93957 99.5811 10.0951 99.0424 10.4062C98.5157 10.7054 98.097 11.1361 97.7857 11.6985C97.487 12.2609 97.337 12.901 97.337 13.619C97.337 14.3369 97.487 14.977 97.7857 15.5394C98.097 16.1018 98.5157 16.5386 99.0424 16.8497C99.5811 17.1488 100.185 17.2984 100.855 17.2984Z" fill="#50E3C2"/>
<path d="M110.775 18.429C110.009 18.429 109.273 18.3213 108.568 18.1059C107.874 17.8786 107.329 17.5974 106.935 17.2624L107.509 16.2573C107.903 16.5684 108.4 16.8257 108.999 17.0291C109.597 17.2205 110.219 17.3162 110.865 17.3162C111.727 17.3162 112.361 17.1846 112.767 16.9214C113.187 16.6461 113.396 16.2633 113.396 15.7727C113.396 15.4257 113.282 15.1565 113.055 14.965C112.827 14.7616 112.54 14.612 112.193 14.5163C111.846 14.4086 111.385 14.3069 110.811 14.2112C110.045 14.0676 109.429 13.924 108.963 13.7804C108.496 13.6249 108.095 13.3676 107.76 13.0086C107.437 12.6497 107.275 12.1531 107.275 11.5189C107.275 10.7292 107.605 10.0831 108.263 9.58046C108.921 9.07793 109.836 8.82666 111.009 8.82666C111.619 8.82666 112.229 8.91039 112.839 9.07793C113.449 9.23346 113.952 9.44286 114.347 9.70613L113.791 10.7292C113.013 10.1907 112.085 9.92153 111.009 9.92153C110.195 9.92153 109.579 10.0651 109.16 10.3523C108.753 10.6395 108.55 11.0163 108.55 11.483C108.55 11.842 108.663 12.1291 108.891 12.3445C109.13 12.5599 109.423 12.7215 109.77 12.8291C110.117 12.9249 110.596 13.0266 111.206 13.1343C111.96 13.2779 112.564 13.4215 113.019 13.565C113.473 13.7086 113.863 13.9539 114.185 14.3009C114.509 14.6479 114.67 15.1265 114.67 15.7368C114.67 16.5624 114.323 17.2205 113.629 17.7111C112.947 18.1897 111.996 18.429 110.775 18.429Z" fill="#50E3C2"/>
</g>
<defs>
<clipPath id="clip0_97_2">
<rect width="114.667" height="24" fill="white" transform="translate(0.486328 0.0705566)"/>
</clipPath>
</defs>
</svg>
