<svg width="108" height="17" viewBox="0 0 108 17" fill="none" xmlns="http://www.w3.org/2000/svg">
<g clip-path="url(#clip0_63_371)">
<path d="M26.4853 16.9412C21.7281 16.9412 18.2344 13.2566 18.2344 8.3977C18.2344 3.53882 21.7281 0.200684 26.4853 0.200684H35.4313C35.5578 0.200684 35.6616 0.304417 35.6616 0.430972V4.20687C35.6616 4.33342 35.5578 4.43715 35.4313 4.43715H26.4853C24.141 4.43715 22.4045 6.211 22.4045 8.60516C22.4045 10.9993 24.0953 12.6819 26.4853 12.6819H35.4313C35.5578 12.6819 35.6616 12.7856 35.6616 12.9122V16.713C35.6616 16.8395 35.5578 16.9433 35.4313 16.9433H26.4853V16.9412Z" fill="#50E3C2"/>
<path d="M46.0474 16.9412C41.1885 16.9412 37.6201 13.2566 37.6201 8.39769C37.6201 3.53882 41.1885 0.200684 46.0474 0.200684H50.2611C55.2589 0.200684 58.7112 3.53882 58.7112 8.39769C58.7112 13.2566 55.1656 16.9412 50.2611 16.9412H46.0474ZM50.2611 12.6819C52.7486 12.6819 54.4747 10.9786 54.4747 8.60516C54.4747 6.23174 52.7237 4.43715 50.2611 4.43715H46.0474C43.6532 4.43715 41.8794 6.21099 41.8794 8.60516C41.8794 10.9993 43.6076 12.6819 46.0474 12.6819H50.2611Z" fill="#50E3C2"/>
<path d="M64.6139 7.46617V16.6984C64.6139 16.825 64.5101 16.9287 64.3836 16.9287H60.9002C60.7737 16.9287 60.6699 16.825 60.6699 16.6984V2.63012C60.6699 1.12806 61.477 0.188232 62.7321 0.188232C63.3379 0.188232 63.7632 0.389475 64.3234 0.906067L73.7984 9.62797C73.9457 9.76282 74.1843 9.65909 74.1843 9.45785V0.441342C74.1843 0.314787 74.288 0.211054 74.4146 0.211054H77.898C78.0245 0.211054 78.1282 0.314787 78.1282 0.441342V14.4868C78.1282 15.9889 77.2984 16.9287 76.066 16.9287C75.4602 16.9287 75.0121 16.7275 74.4748 16.2109L65.0018 7.29812C64.8545 7.15911 64.6139 7.26492 64.6139 7.46617Z" fill="#50E3C2"/>
<path d="M80.0869 16.6923V0.424868C80.0869 0.296239 80.1906 0.19458 80.3172 0.19458H84.1118C84.2404 0.19458 84.3421 0.298313 84.3421 0.424868V16.6923C84.3421 16.821 84.2383 16.9226 84.1118 16.9226H80.3172C80.1886 16.9226 80.0869 16.8189 80.0869 16.6923Z" fill="#50E3C2"/>
<path d="M98.7292 1.54507C98.2603 0.729725 97.6877 0.204834 96.86 0.204834C96.0322 0.204834 95.4367 0.72765 94.9699 1.54507L86.497 16.5906C86.4098 16.7441 86.5219 16.935 86.6982 16.935H90.6276C90.7127 16.935 90.7895 16.8893 90.8289 16.8146L92.7106 13.3976C92.7521 13.325 92.8289 13.2773 92.9119 13.2773H100.526C100.609 13.2773 100.688 13.323 100.727 13.3956L102.613 16.8125C102.654 16.8852 102.731 16.9308 102.814 16.9308H106.999C107.175 16.9308 107.287 16.7399 107.2 16.5864L98.7292 1.54507ZM94.6981 9.78565L96.5073 6.4973C96.5944 6.33755 96.8226 6.33755 96.9118 6.4973L98.7292 9.78565C98.8143 9.93917 98.7023 10.128 98.528 10.128H94.9015C94.7251 10.128 94.6152 9.93917 94.7002 9.78565H94.6981Z" fill="#50E3C2"/>
<path d="M15.3805 9.95345H7.8992C7.77264 9.95345 7.66891 9.84972 7.66891 9.72316V7.41613C7.66891 7.28958 7.77264 7.18584 7.8992 7.18584H15.3805C15.507 7.18584 15.6107 7.28958 15.6107 7.41613V9.72316C15.6107 9.84972 15.507 9.95345 15.3805 9.95345ZM0.818359 16.7086V0.430728C0.818359 0.302098 0.922093 0.200439 1.04865 0.200439H15.9966C16.1232 0.200439 16.2269 0.304173 16.2269 0.430728V4.20662C16.2269 4.33318 16.1232 4.43691 15.9966 4.43691H5.27474C5.14819 4.43691 5.04446 4.54064 5.04446 4.6672V12.4493C5.04446 12.5758 5.14819 12.6796 5.27474 12.6796H16.0443C16.1709 12.6796 16.2746 12.7833 16.2746 12.9099V16.7086C16.2746 16.8351 16.1709 16.9389 16.0443 16.9389H1.04865C0.922093 16.9389 0.818359 16.8351 0.818359 16.7086Z" fill="#50E3C2"/>
</g>
<defs>
<clipPath id="clip0_63_371">
<rect width="106.412" height="16.7529" fill="white" transform="translate(0.820312 0.188232)"/>
</clipPath>
</defs>
</svg>
