<svg width="106" height="43" viewBox="0 0 106 43" fill="none" xmlns="http://www.w3.org/2000/svg">
<path fill-rule="evenodd" clip-rule="evenodd" d="M14.7314 0.129395V7.86529L13.1476 9.44907V20.9826V21.1586V35.6766H14.0275V29.5245L15.6113 27.9406V21.1586V20.9826V0.129395H14.7314ZM2.06132 12.7997V17.3682L0.477539 18.9519V21.1587H2.94119V12.7997H2.06132ZM5.22914 14.9043V9.63209H6.10901V21.1585H3.64536V16.4881L5.22914 14.9043ZM8.39679 6.46453V12.6166L6.81301 14.2004V20.9826V21.1585V42.0117H7.69288V34.2758L9.27666 32.692V21.1585V20.9826V6.46453H8.39679ZM11.5644 10.153V3.29696H12.4443V20.9826V21.1585V30.4044L10.8605 31.9882V38.8442H9.98066V21.1585V20.9826V11.7368L11.5644 10.153ZM21.9469 20.9826H19.4833V29.3415H20.3631V24.7731L21.9469 23.1893V20.9826ZM17.1963 32.5091H16.3165V20.9826H18.7801V25.653L17.1963 27.2368V32.5091ZM43.7929 22.2673C43.7929 19.2757 45.9868 17.0819 48.7789 17.0819C50.7733 17.0819 51.97 17.9793 52.668 18.8369C53.0868 19.3554 53.386 19.9338 53.5655 20.572H51.97C51.8104 20.1931 51.591 19.874 51.3118 19.5748C50.8331 19.0762 50.0354 18.5776 48.7789 18.5776C46.8643 18.5776 45.3884 20.0934 45.3884 22.2673C45.3884 24.4811 46.964 25.9569 48.7789 25.9569C50.0753 25.9569 50.8929 25.4184 51.3915 24.86C51.6908 24.5408 51.9101 24.1818 52.0697 23.763H53.6652C53.4856 24.4611 53.1666 25.0793 52.7478 25.6178C52.0098 26.5153 50.8331 27.4527 48.7789 27.4527C45.9868 27.4527 43.7929 25.2589 43.7929 22.2673ZM55.6678 14.6885V27.2532H57.2633V21.8683C57.2633 19.874 58.5397 18.5776 60.3546 18.5776C61.9501 18.5776 63.0471 19.4751 63.0471 21.4694V27.2532H64.6426V21.3697C64.6426 18.6773 63.0471 17.0818 60.6538 17.0818C59.4571 17.0818 58.5996 17.5206 58.0611 17.9394C57.742 18.1787 57.4827 18.4579 57.2832 18.777H57.2633V14.6885H55.6678ZM66.6387 22.2673C66.6387 19.2757 68.8325 17.0819 71.7244 17.0819C74.6163 17.0819 76.8104 19.2757 76.8104 22.1675V22.7658H68.2342C68.4536 24.6207 69.8896 25.9569 71.7244 25.9569C72.9211 25.9569 73.7188 25.5181 74.2573 25.0594C74.5565 24.8001 74.8158 24.501 75.0152 24.1619H76.6103C76.3711 24.7802 76.0323 25.3386 75.5936 25.8173C74.8158 26.6349 73.6191 27.4527 71.7244 27.4527C68.8325 27.4527 66.6387 25.2589 66.6387 22.2673ZM68.2741 21.3698H75.1149C74.8955 19.874 73.6391 18.5776 71.7244 18.5776C69.8098 18.5776 68.5334 19.874 68.2741 21.3698ZM79.001 14.6885V27.2532H82.8904V25.7574H80.5971V14.6885H79.001ZM83.8948 22.2673C83.8948 19.2757 86.0893 17.0819 89.0807 17.0819C92.072 17.0819 94.2657 19.2757 94.2657 22.2673C94.2657 25.2589 92.072 27.4527 89.0807 27.4527C86.0893 27.4527 83.8948 25.2589 83.8948 22.2673ZM85.4909 22.2673C85.4909 24.4411 87.0061 25.9569 89.0807 25.9569C91.1544 25.9569 92.6705 24.4411 92.6705 22.2673C92.6705 20.0934 91.1544 18.5776 89.0807 18.5776C87.0061 18.5776 85.4909 20.0934 85.4909 22.2673ZM96.4513 17.2812V27.2532H98.0466V21.8684C98.0466 19.874 99.3235 18.5776 101.138 18.5776C102.734 18.5776 103.831 19.4751 103.831 21.4695V27.2532H105.426V21.3698C105.426 18.6773 103.831 17.0819 101.437 17.0819C100.241 17.0819 99.383 17.5206 98.845 17.9394C98.5258 18.1787 98.2662 18.4579 98.067 18.7771H98.0466V17.2812H96.4513ZM32.4171 14.6885H42.1896V16.3838H34.2121H32.4171V14.6885ZM40.6939 19.8407H34.2121H32.4171V27.2532H42.1896V25.558H34.2121V21.5359H40.6939V19.8407Z" fill="#50E3C2"/>
</svg>
