<svg width="126" height="20" viewBox="0 0 126 20" fill="none" xmlns="http://www.w3.org/2000/svg">
<path fill-rule="evenodd" clip-rule="evenodd" d="M11.6997 0.298096V8.07758C11.6997 8.76637 12.0732 9.40696 12.6736 9.75035L19.443 13.624L20.7162 11.4372L15.6276 8.5274L20.172 5.88671L18.8004 3.53319L14.244 6.1799V0.298096H11.6997ZM63.0751 17.8813V1.90064H64.9768V17.8813H63.0751ZM42.2204 12.1281V17.8814H40.3207V1.90072H42.2204V8.93118C42.8911 7.38893 44.1441 6.59572 45.8872 6.59572C48.301 6.59572 49.5761 8.11387 49.5761 11.0257V17.8794H47.6744V11.1582C47.6744 9.21633 46.8491 8.20423 45.2386 8.20423C43.3148 8.20423 42.2204 9.63804 42.2204 12.1281ZM26.3367 3.99515V2.23202H38.4317V3.99515H33.4455V17.8793H31.3209V3.99515H26.3367ZM55.1372 18.1444C56.9726 18.1444 58.3783 17.2849 58.8923 15.8752C58.9144 16.5801 58.9807 17.307 59.0711 17.8833H61.0611C60.792 17.0239 60.6816 15.8531 60.6816 14.1583V11.1822C60.6816 7.96319 59.3402 6.59766 56.2778 6.59766C53.6612 6.59766 51.8739 8.07363 51.7193 10.3227H53.7536C53.8419 8.93512 54.7817 8.1399 56.3039 8.1399C58.0268 8.1399 58.7618 8.9552 58.7618 10.9834V11.1601L56.6834 11.4051C54.848 11.626 53.7756 11.8891 52.9282 12.3088C51.9221 12.861 51.3639 13.8068 51.3639 14.9113C51.3639 16.8721 52.8602 18.1489 55.1392 18.1504L55.1351 18.1464L55.1372 18.1444ZM55.5609 16.6021C54.1973 16.6021 53.372 15.9415 53.372 14.8611C53.372 13.7807 54.0889 13.2064 55.7416 12.9674L58.7819 12.5257V13.0779C58.7819 15.2165 57.5067 16.6042 55.5629 16.6042L55.5609 16.6021ZM70.5491 18.1444C72.3845 18.1444 73.7902 17.2849 74.3043 15.8752C74.3264 16.5801 74.3926 17.307 74.481 17.8833H76.471C76.202 17.0239 76.0915 15.8531 76.0915 14.1583V11.1822C76.0915 7.96319 74.7501 6.59766 71.6877 6.59766C69.0711 6.59766 67.2839 8.07363 67.1292 10.3227H69.1635C69.2518 8.93512 70.1916 8.1399 71.7098 8.1399C73.4328 8.1399 74.1677 8.9552 74.1677 10.9834V11.1601L72.0893 11.4051C70.2539 11.626 69.1815 11.8891 68.3321 12.3088C67.326 12.861 66.7678 13.8068 66.7678 14.9113C66.7678 16.8732 68.2658 18.1504 70.5471 18.1504V18.1464L70.5491 18.1444ZM70.9728 16.6021C69.6093 16.6021 68.7839 15.9415 68.7839 14.8611C68.7839 13.7807 69.5008 13.2064 71.1535 12.9674L74.1938 12.5257V13.0779C74.1938 15.2165 72.9187 16.6042 70.9748 16.6042L70.9728 16.6021ZM91.4582 16.1182V17.8814H82.004V2.23202H84.1266V16.1182H91.4582ZM96.5811 18.1444C98.4165 18.1444 99.8222 17.2849 100.338 15.8752C100.36 16.5801 100.427 17.307 100.515 17.8833H102.505C102.236 17.0239 102.126 15.8531 102.126 14.1583V11.1822C102.126 7.96319 100.784 6.59766 97.7217 6.59766C95.1051 6.59766 93.3179 8.07363 93.1633 10.3227H95.1975C95.2859 8.93512 96.2257 8.1399 97.7438 8.1399C99.4668 8.1399 100.202 8.9552 100.202 10.9834V11.1601L98.1234 11.4051C96.2879 11.626 95.2176 11.8891 94.3682 12.3088C93.3621 12.861 92.8038 13.8068 92.8038 14.9113C92.8038 16.8727 94.301 18.1497 96.5811 18.1504V18.1464V18.1444ZM97.0048 16.6021C95.6413 16.6021 94.816 15.9415 94.816 14.8611C94.816 13.7807 95.5329 13.2064 97.1856 12.9674L100.226 12.5257V13.0779C100.226 15.2165 98.9507 16.6042 97.0068 16.6042L97.0048 16.6021ZM114.47 12.3691C114.47 15.809 112.66 18.1445 109.865 18.1445L109.863 18.1485C108.166 18.1485 106.891 17.2669 106.31 15.9877L105.975 17.8814H104.523V1.90072H106.423V8.77655C107.001 7.54155 108.232 6.59371 109.975 6.59371C112.702 6.59371 114.47 8.92916 114.47 12.3691ZM106.381 12.6944C106.381 14.9897 107.475 16.4878 109.353 16.4878H109.355V16.4837C111.299 16.4837 112.461 14.829 112.461 12.3631C112.461 9.89708 111.367 8.24239 109.377 8.24239C107.499 8.24239 106.381 9.72037 106.381 12.1221V12.6944ZM120.718 18.1445C123.447 18.1445 124.987 16.7569 124.987 14.7728C124.987 13.1643 124.094 12.1482 122.082 11.7747L119.913 11.3771C118.818 11.1803 118.19 10.7405 118.19 9.81076C118.19 8.7324 119.061 8.11389 120.491 8.11389C122.009 8.11389 122.883 8.88702 123.13 9.98748L125.008 9.56979C124.785 7.71829 123.084 6.59374 120.582 6.59374C117.943 6.59374 116.334 8.00345 116.334 9.89912C116.334 11.5739 117.407 12.6322 119.308 12.9836L121.497 13.3812C122.503 13.5579 123.11 13.9535 123.11 14.9235C123.11 15.8934 122.282 16.5982 120.786 16.5982C119.154 16.5982 118.106 15.805 117.834 14.4154L115.911 14.7467C116.29 16.9296 118.079 18.1425 120.718 18.1425V18.1445ZM120.718 18.1445V18.1465H120.716L120.718 18.1445ZM12.0959 19.8432H9.35279V14.5659L4.25214 17.4837L2.97899 15.2968L9.7504 11.4231C10.3508 11.0797 11.0978 11.0797 11.7003 11.4231L18.4697 15.2968L17.1965 17.4837L12.0959 14.5659V19.8432ZM7.20169 6.17993V0.298131H9.74598V8.07761C9.74598 8.7664 9.37247 9.40699 8.77204 9.75038L2.00264 13.6241L0.729492 11.4372L5.81809 8.52744L1.27369 5.88675L2.64524 3.53322L7.20169 6.17993Z" fill="#50E3C2"/>
</svg>
