<svg width="110" height="19" viewBox="0 0 110 19" fill="none" xmlns="http://www.w3.org/2000/svg">
<g clip-path="url(#clip0_97_13)">
<path d="M99.8986 14.8664C97.5804 14.8664 95.5201 13.1867 94.9891 10.8675H108.754C108.754 10.8675 108.828 10.0271 108.828 9.72992C108.828 4.8076 104.823 0.802002 99.9009 0.802002C94.9786 0.802002 90.9736 4.80677 90.9736 9.72992C90.9736 14.6531 94.9561 18.5648 99.9009 18.5648C104.846 18.5648 107.733 14.9221 108.454 12.2849H104.258C104.258 12.2849 102.923 14.8664 99.8986 14.8664ZM99.9009 4.49872C102.124 4.49872 104.054 5.96677 104.714 8.15477H95.0874C95.7459 5.96677 97.6764 4.49872 99.9009 4.49872Z" fill="#50E3C2"/>
<path d="M47.3732 18.5648C42.4509 18.5648 38.5898 14.6015 38.5898 9.72992C38.5898 4.85825 42.5946 0.802002 47.5169 0.802002C52.4392 0.802002 56.444 4.96454 56.444 9.6826C56.444 11.6928 56.444 18.1223 56.444 18.1223H52.9781V15.3057L52.7257 15.2393C52.1153 16.7355 49.9041 18.5648 47.3724 18.5648H47.3732ZM47.5169 4.49872C44.7369 4.49872 42.4742 6.83282 42.4742 9.70247C42.4742 12.5722 44.7361 14.8673 47.5169 14.8673C50.2977 14.8673 52.5596 12.5506 52.5596 9.70247C52.5596 6.85441 50.2977 4.49872 47.5169 4.49872Z" fill="#50E3C2"/>
<path d="M66.3343 18.5648C61.4119 18.5648 57.5508 14.6015 57.5508 9.72992C57.5508 4.85825 61.5556 0.802002 66.4779 0.802002C71.4002 0.802002 75.405 4.96454 75.405 9.6826C75.405 11.6928 75.405 18.1223 75.405 18.1223H71.9391V15.3057L71.6866 15.2393C71.0764 16.7355 68.8651 18.5648 66.3334 18.5648H66.3343ZM66.4779 4.49872C63.6979 4.49872 61.4352 6.83282 61.4352 9.70247C61.4352 12.5722 63.697 14.8673 66.4779 14.8673C69.2587 14.8673 71.5206 12.5506 71.5206 9.70247C71.5206 6.85441 69.2587 4.49872 66.4779 4.49872Z" fill="#50E3C2"/>
<path d="M81.2228 18.1202L74.1094 1.24585H78.0016L83.2148 13.6762L88.4296 1.24585H92.3206L85.2076 18.1202H81.2228Z" fill="#50E3C2"/>
<path d="M13.4082 18.5381C15.344 18.5381 16.9131 16.9689 16.9131 15.0332C16.9131 13.0975 15.344 11.5283 13.4082 11.5283C11.4725 11.5283 9.90332 13.0975 9.90332 15.0332C9.90332 16.9689 11.4725 18.5381 13.4082 18.5381Z" fill="#50E3C2"/>
<path d="M22.5694 18.5381C24.505 18.5381 26.0743 16.9689 26.0743 15.0332C26.0743 13.0975 24.505 11.5283 22.5694 11.5283C20.6337 11.5283 19.0645 13.0975 19.0645 15.0332C19.0645 16.9689 20.6337 18.5381 22.5694 18.5381Z" fill="#50E3C2"/>
<path d="M17.9827 0.564697C8.466 0.564697 0.750439 8.42725 0.75293 18.1232H5.1546C5.1546 10.8569 10.8524 4.96555 17.9827 4.96555C25.1129 4.96555 30.8107 10.8569 30.8107 18.1232H35.2124C35.2141 8.42725 27.4985 0.564697 17.9827 0.564697Z" fill="#50E3C2"/>
</g>
<defs>
<clipPath id="clip0_97_13">
<rect width="108.75" height="18" fill="white" transform="translate(0.75293 0.564697)"/>
</clipPath>
</defs>
</svg>
