<svg xmlns="http://www.w3.org/2000/svg" width="438" height="94" fill="none" viewBox="0 0 438 94"><path fill="#fff" d="M13.1914 63.5281V55.302H44.91V63.5281H13.1914ZM1.25985 73.9774L23.789 26.029H34.4606L57.2121 73.9774H46.4663L26.7533 30.7719H31.4963L11.9315 73.9774H1.25985ZM59.2176 37.1453H68.8518V73.9774H59.2176V37.1453ZM85.9709 36.3301C88.2436 36.3301 90.3434 36.6265 92.2702 37.2194C94.197 37.8123 95.8768 38.7263 97.3096 39.9614C98.7424 41.1966 99.854 42.7776 100.644 44.7044C101.435 46.5818 101.83 48.8298 101.83 51.4483V73.9774H92.1961V53.1528C92.1961 50.0402 91.4303 47.7676 89.8987 46.3348C88.4165 44.8526 85.9709 44.1115 82.5619 44.1115C79.9928 44.1115 77.6707 44.6056 75.5957 45.5937C73.5206 46.5818 71.8408 47.8417 70.5563 49.3733C69.2717 50.8554 68.5306 52.4117 68.333 54.0421L68.2589 50.2626C68.5059 48.5334 69.0741 46.8536 69.9634 45.2232C70.8527 43.5928 72.0385 42.1106 73.5206 40.7766C75.0522 39.3933 76.8555 38.3063 78.9306 37.5158C81.0056 36.7254 83.3524 36.3301 85.9709 36.3301ZM104.302 37.1453H132.908V44.6303H104.302V37.1453ZM113.788 27.0665H123.423V73.9774H113.788V27.0665ZM146.366 20.9896V29.438H135.176V20.9896H146.366ZM135.917 37.1453H145.551V73.9774H135.917V37.1453ZM152.115 22.3235H161.75V73.9774H152.115V22.3235ZM192.801 37.1453L170.865 56.4877L171.087 50.559L194.506 73.9774H182.278L161.972 53.301L179.684 37.1453H192.801ZM192.535 37.1453H202.762L218.696 72.4952L210.396 73.9774L192.535 37.1453ZM237.594 37.1453L212.1 88.7992H202.095L212.989 68.4934L227.293 37.1453H237.594ZM236.902 37.1453H265.508V44.6303H236.902V37.1453ZM246.388 27.0665H256.022V73.9774H246.388V27.0665ZM301.569 73.9774V53.7457C301.569 51.72 301.223 50.0402 300.532 48.7063C299.84 47.3723 298.728 46.3595 297.197 45.6678C295.715 44.9761 293.714 44.6303 291.194 44.6303C288.773 44.6303 286.575 45.0997 284.598 46.0384C282.622 46.9277 281.016 48.1134 279.781 49.5956C278.546 51.0284 277.854 52.5599 277.706 54.1903L277.632 50.1144C277.879 48.484 278.447 46.8536 279.337 45.2232C280.226 43.5928 281.412 42.1106 282.894 40.7766C284.376 39.4427 286.155 38.3805 288.23 37.59C290.354 36.7501 292.726 36.3301 295.344 36.3301C297.617 36.3301 299.717 36.6265 301.643 37.2194C303.57 37.7629 305.25 38.6275 306.683 39.8132C308.116 40.999 309.227 42.4811 310.018 44.2598C310.808 45.989 311.203 48.0393 311.203 50.4108V73.9774H301.569ZM268.591 73.9774V22.3235H278.225V73.9774H268.591ZM349.825 61.7495H359.163C358.768 64.2692 357.705 66.5171 355.976 68.4934C354.296 70.4696 351.999 72.0259 349.084 73.1622C346.169 74.2986 342.612 74.8667 338.412 74.8667C333.719 74.8667 329.569 74.1256 325.962 72.6435C322.355 71.1119 319.539 68.9133 317.514 66.0478C315.488 63.1822 314.475 59.7238 314.475 55.6725C314.475 51.6212 315.463 48.1628 317.44 45.2973C319.416 42.3823 322.158 40.1591 325.666 38.6275C329.223 37.0959 333.373 36.3301 338.116 36.3301C342.958 36.3301 346.984 37.0959 350.196 38.6275C353.407 40.1591 355.779 42.4811 357.31 45.5937C358.891 48.6569 359.558 52.5847 359.311 57.377H324.183C324.431 59.2545 325.122 60.959 326.259 62.4905C327.444 64.0221 329.025 65.2326 331.002 66.1219C333.027 67.0112 335.423 67.4558 338.19 67.4558C341.253 67.4558 343.798 66.9371 345.823 65.8995C347.898 64.8126 349.232 63.4293 349.825 61.7495ZM337.671 43.6669C334.114 43.6669 331.224 44.4574 329.001 46.0384C326.777 47.57 325.345 49.4721 324.702 51.7448H349.751C349.504 49.2745 348.318 47.3229 346.194 45.8902C344.119 44.408 341.278 43.6669 337.671 43.6669ZM362.775 37.1453H372.409V73.9774H362.775V37.1453ZM386.563 45.075C383.797 45.075 381.401 45.6184 379.375 46.7053C377.349 47.7429 375.719 49.0274 374.484 50.559C373.249 52.0906 372.384 53.5728 371.89 55.0055L371.816 50.9296C371.865 50.3367 372.063 49.4721 372.409 48.3357C372.755 47.15 373.273 45.8902 373.965 44.5562C374.657 43.1728 375.571 41.8636 376.707 40.6284C377.843 39.3439 379.227 38.3063 380.857 37.5158C382.487 36.7254 384.39 36.3301 386.563 36.3301V45.075ZM406.748 74.7926C403.092 74.7926 399.757 74.0021 396.744 72.4211C393.779 70.7907 391.408 68.5428 389.629 65.6772C387.9 62.7623 387.035 59.4027 387.035 55.5984C387.035 51.6953 387.925 48.311 389.703 45.4455C391.482 42.58 393.878 40.3567 396.892 38.7757C399.955 37.1453 403.413 36.3301 407.267 36.3301C411.516 36.3301 414.925 37.1947 417.494 38.9239C420.113 40.6037 422.015 42.9011 423.2 45.816C424.386 48.731 424.979 51.9918 424.979 55.5984C424.979 57.7723 424.633 59.9955 423.942 62.2682C423.25 64.4915 422.188 66.5665 420.755 68.4934C419.322 70.3708 417.445 71.9024 415.123 73.0881C412.801 74.2244 410.009 74.7926 406.748 74.7926ZM409.861 67.3817C412.776 67.3817 415.296 66.8877 417.42 65.8995C419.544 64.9114 421.175 63.5281 422.311 61.7495C423.448 59.9708 424.016 57.9205 424.016 55.5984C424.016 53.0787 423.423 50.9543 422.237 49.225C421.101 47.4464 419.47 46.1125 417.346 45.2232C415.271 44.2845 412.776 43.8151 409.861 43.8151C405.76 43.8151 402.574 44.902 400.301 47.0759C398.028 49.2003 396.892 52.0412 396.892 55.5984C396.892 57.9699 397.435 60.0449 398.522 61.8236C399.609 63.5528 401.116 64.9114 403.043 65.8995C405.019 66.8877 407.292 67.3817 409.861 67.3817ZM424.016 37.1453H433.65V73.9774H424.683C424.683 73.9774 424.609 73.5081 424.46 72.5693C424.362 71.5812 424.263 70.3461 424.164 68.8639C424.065 67.3817 424.016 65.9243 424.016 64.4915V37.1453Z"/><path fill="#fff" d="M236.194 8.38771H224.288C222.901 8.38771 221.581 7.7924 220.663 6.75624L215.833 1.30023C215.114 0.485905 214.078 0.022583 212.994 0.022583C211.91 0.022583 210.874 0.488713 210.155 1.30023L206.013 5.98123C204.657 7.5116 202.711 8.39051 200.667 8.39051H188.839L188.839 25.0646H193.47C194.551 25.0646 195.587 24.6237 196.334 23.8431L202.063 17.8648C202.779 17.1179 203.767 16.6967 204.8 16.6967H205.036C206.123 16.6967 207.156 17.1628 207.875 17.9771L212.702 23.4331C213.62 24.4721 214.94 25.0646 216.327 25.0646H236.191C236.194 8.38771 236.191 25.0646 236.191 8.39051L236.194 8.38771Z"/></svg>