<svg xmlns="http://www.w3.org/2000/svg" width="207" height="18" fill="none" viewBox="0 0 207 18"><rect width="206.75" height="18" fill="#EDFF7B"/><path stroke="#000" stroke-linecap="round" stroke-linejoin="round" stroke-width="1.25" d="M12.875 5.875L6.625 12.125M6.625 12.125H12.875M6.625 12.125V5.875"/><path fill="#000" d="M24.27 9.26V11.168H30.258V12.5H22.674V4.736H30.246V6.068H24.27V8H29.166V9.26H24.27ZM37.8847 4.736H39.8287L36.1567 9.02L36.1087 9.068L33.3847 12.5H31.4407L35.2207 8L35.2567 7.964L37.8847 4.736ZM33.5047 4.736L36.0967 7.988L36.1207 8.024L39.8647 12.5H37.8367L35.1487 9.02L35.1127 8.996L31.5607 4.736H33.5047ZM42.8559 9.26V11.168H48.8439V12.5H41.2599V4.736H48.8319V6.068H42.8559V8H47.7519V9.26H42.8559ZM59.4723 9.704C59.4003 10.328 59.1803 10.86 58.8123 11.3C58.4443 11.74 57.9443 12.076 57.3123 12.308C56.6803 12.54 55.9283 12.656 55.0563 12.656C54.3283 12.656 53.6603 12.572 53.0523 12.404C52.4523 12.236 51.9323 11.984 51.4923 11.648C51.0603 11.312 50.7243 10.896 50.4843 10.4C50.2443 9.896 50.1243 9.308 50.1243 8.636C50.1243 7.964 50.2443 7.376 50.4843 6.872C50.7243 6.368 51.0603 5.948 51.4923 5.612C51.9323 5.268 52.4523 5.012 53.0523 4.844C53.6603 4.668 54.3283 4.58 55.0563 4.58C55.9283 4.58 56.6803 4.7 57.3123 4.94C57.9523 5.18 58.4563 5.524 58.8243 5.972C59.1923 6.412 59.4083 6.948 59.4723 7.58H57.8883C57.7843 7.244 57.6083 6.956 57.3603 6.716C57.1203 6.468 56.8083 6.28 56.4243 6.152C56.0403 6.024 55.5843 5.96 55.0563 5.96C54.4003 5.96 53.8243 6.064 53.3283 6.272C52.8323 6.472 52.4483 6.772 52.1763 7.172C51.9043 7.564 51.7683 8.052 51.7683 8.636C51.7683 9.212 51.9043 9.696 52.1763 10.088C52.4483 10.48 52.8323 10.78 53.3283 10.988C53.8243 11.188 54.4003 11.288 55.0563 11.288C55.5843 11.288 56.0363 11.224 56.4123 11.096C56.7963 10.968 57.1083 10.784 57.3483 10.544C57.5963 10.304 57.7763 10.024 57.8883 9.704H59.4723ZM68.1575 9.068V4.736H69.7535V9.236C69.7535 9.748 69.6775 10.196 69.5255 10.58C69.3815 10.964 69.1735 11.288 68.9015 11.552C68.6295 11.816 68.3095 12.032 67.9415 12.2C67.5815 12.36 67.1855 12.476 66.7535 12.548C66.3295 12.62 65.8815 12.656 65.4095 12.656C64.9215 12.656 64.4575 12.62 64.0175 12.548C63.5775 12.476 63.1735 12.36 62.8055 12.2C62.4455 12.032 62.1335 11.816 61.8695 11.552C61.6055 11.288 61.3975 10.964 61.2455 10.58C61.1015 10.196 61.0295 9.748 61.0295 9.236V4.736H62.6255V9.068C62.6255 9.676 62.7455 10.14 62.9855 10.46C63.2255 10.772 63.5535 10.988 63.9695 11.108C64.3935 11.22 64.8735 11.276 65.4095 11.276C65.9295 11.276 66.3935 11.22 66.8015 11.108C67.2175 10.988 67.5455 10.772 67.7855 10.46C68.0335 10.14 68.1575 9.676 68.1575 9.068ZM70.9158 4.736H79.0998V6.068H70.9158V4.736ZM74.2158 5.9H75.8118V12.5H74.2158V5.9ZM81.8559 9.26V11.168H87.8439V12.5H80.2599V4.736H87.8319V6.068H81.8559V8H86.7519V9.26H81.8559ZM91.2127 4.736H99.3967V6.068H91.2127V4.736ZM94.5127 5.9H96.1087V12.5H94.5127V5.9ZM100.557 12.5V4.736H105.825C106.425 4.736 106.945 4.82 107.385 4.988C107.833 5.148 108.181 5.404 108.429 5.756C108.677 6.1 108.801 6.544 108.801 7.088C108.801 7.456 108.737 7.768 108.609 8.024C108.481 8.28 108.301 8.488 108.069 8.648C107.845 8.808 107.585 8.932 107.289 9.02C106.993 9.1 106.677 9.152 106.341 9.176L106.173 9.08C106.733 9.088 107.193 9.136 107.553 9.224C107.913 9.304 108.181 9.456 108.357 9.68C108.541 9.896 108.633 10.22 108.633 10.652V12.5H107.037V10.76C107.037 10.464 106.985 10.236 106.881 10.076C106.777 9.908 106.589 9.792 106.317 9.728C106.053 9.664 105.669 9.632 105.165 9.632H102.153V12.5H100.557ZM102.153 8.384H105.825C106.273 8.384 106.613 8.276 106.845 8.06C107.085 7.844 107.205 7.552 107.205 7.184C107.205 6.832 107.085 6.564 106.845 6.38C106.613 6.196 106.273 6.104 105.825 6.104H102.153V8.384ZM111.683 10.808V9.476H116.819V10.808H111.683ZM109.751 12.5L113.399 4.736H115.127L118.811 12.5H117.071L113.879 5.504H114.647L111.479 12.5H109.751ZM127.812 10.916L127.308 11.12V4.736H128.904V12.5H127.308L121.032 6.368L121.536 6.164V12.5H119.94V4.736H121.536L127.812 10.916ZM130.24 9.884H131.86C131.892 10.156 132.016 10.404 132.232 10.628C132.456 10.844 132.748 11.016 133.108 11.144C133.468 11.264 133.872 11.324 134.32 11.324C134.728 11.324 135.064 11.28 135.328 11.192C135.592 11.104 135.788 10.98 135.916 10.82C136.044 10.66 136.108 10.468 136.108 10.244C136.108 10.028 136.028 9.864 135.868 9.752C135.708 9.632 135.456 9.536 135.112 9.464C134.768 9.384 134.316 9.304 133.756 9.224C133.316 9.16 132.9 9.072 132.508 8.96C132.116 8.84 131.768 8.688 131.464 8.504C131.168 8.32 130.932 8.096 130.756 7.832C130.588 7.56 130.504 7.24 130.504 6.872C130.504 6.416 130.632 6.016 130.888 5.672C131.152 5.328 131.54 5.06 132.052 4.868C132.564 4.676 133.192 4.58 133.936 4.58C135.056 4.58 135.916 4.82 136.516 5.3C137.124 5.772 137.42 6.424 137.404 7.256H135.844C135.812 6.784 135.612 6.444 135.244 6.236C134.884 6.028 134.428 5.924 133.876 5.924C133.364 5.924 132.94 6 132.604 6.152C132.276 6.304 132.112 6.564 132.112 6.932C132.112 7.076 132.152 7.204 132.232 7.316C132.312 7.42 132.448 7.512 132.64 7.592C132.832 7.672 133.092 7.748 133.42 7.82C133.748 7.892 134.156 7.964 134.644 8.036C135.1 8.1 135.512 8.188 135.88 8.3C136.256 8.404 136.576 8.544 136.84 8.72C137.112 8.888 137.32 9.104 137.464 9.368C137.608 9.632 137.68 9.956 137.68 10.34C137.68 10.812 137.556 11.224 137.308 11.576C137.068 11.92 136.692 12.188 136.18 12.38C135.676 12.572 135.02 12.668 134.212 12.668C133.636 12.668 133.128 12.608 132.688 12.488C132.248 12.36 131.868 12.192 131.548 11.984C131.228 11.776 130.968 11.548 130.768 11.3C130.568 11.052 130.424 10.804 130.336 10.556C130.256 10.308 130.224 10.084 130.24 9.884ZM140.195 10.808V9.476H145.331V10.808H140.195ZM138.263 12.5L141.911 4.736H143.639L147.323 12.5H145.583L142.391 5.504H143.159L139.991 12.5H138.263ZM157.125 9.704C157.053 10.328 156.833 10.86 156.465 11.3C156.097 11.74 155.597 12.076 154.965 12.308C154.333 12.54 153.581 12.656 152.709 12.656C151.981 12.656 151.313 12.572 150.705 12.404C150.105 12.236 149.585 11.984 149.145 11.648C148.713 11.312 148.377 10.896 148.137 10.4C147.897 9.896 147.777 9.308 147.777 8.636C147.777 7.964 147.897 7.376 148.137 6.872C148.377 6.368 148.713 5.948 149.145 5.612C149.585 5.268 150.105 5.012 150.705 4.844C151.313 4.668 151.981 4.58 152.709 4.58C153.581 4.58 154.333 4.7 154.965 4.94C155.605 5.18 156.109 5.524 156.477 5.972C156.845 6.412 157.061 6.948 157.125 7.58H155.541C155.437 7.244 155.261 6.956 155.013 6.716C154.773 6.468 154.461 6.28 154.077 6.152C153.693 6.024 153.237 5.96 152.709 5.96C152.053 5.96 151.477 6.064 150.981 6.272C150.485 6.472 150.101 6.772 149.829 7.172C149.557 7.564 149.421 8.052 149.421 8.636C149.421 9.212 149.557 9.696 149.829 10.088C150.101 10.48 150.485 10.78 150.981 10.988C151.477 11.188 152.053 11.288 152.709 11.288C153.237 11.288 153.689 11.224 154.065 11.096C154.449 10.968 154.761 10.784 155.001 10.544C155.249 10.304 155.429 10.024 155.541 9.704H157.125ZM157.763 4.736H165.947V6.068H157.763V4.736ZM161.063 5.9H162.659V12.5H161.063V5.9ZM167.336 4.736H168.932V12.5H167.336V4.736ZM175.618 12.656C174.586 12.656 173.702 12.496 172.966 12.176C172.238 11.848 171.678 11.384 171.286 10.784C170.902 10.184 170.71 9.464 170.71 8.624C170.71 7.776 170.902 7.052 171.286 6.452C171.678 5.852 172.238 5.392 172.966 5.072C173.702 4.744 174.586 4.58 175.618 4.58C176.658 4.58 177.542 4.744 178.27 5.072C178.998 5.392 179.554 5.852 179.938 6.452C180.33 7.052 180.526 7.776 180.526 8.624C180.526 9.464 180.33 10.184 179.938 10.784C179.554 11.384 178.998 11.848 178.27 12.176C177.542 12.496 176.658 12.656 175.618 12.656ZM175.618 11.276C176.258 11.276 176.818 11.18 177.298 10.988C177.786 10.796 178.166 10.504 178.438 10.112C178.718 9.72 178.858 9.224 178.858 8.624C178.858 8.024 178.718 7.528 178.438 7.136C178.166 6.744 177.786 6.452 177.298 6.26C176.818 6.06 176.258 5.96 175.618 5.96C174.986 5.96 174.422 6.06 173.926 6.26C173.43 6.452 173.042 6.744 172.762 7.136C172.482 7.528 172.342 8.024 172.342 8.624C172.342 9.224 172.482 9.72 172.762 10.112C173.042 10.504 173.43 10.796 173.926 10.988C174.422 11.18 174.986 11.276 175.618 11.276ZM189.956 10.916L189.452 11.12V4.736H191.048V12.5H189.452L183.176 6.368L183.68 6.164V12.5H182.084V4.736H183.68L189.956 10.916ZM192.385 9.884H194.005C194.037 10.156 194.161 10.404 194.377 10.628C194.601 10.844 194.893 11.016 195.253 11.144C195.613 11.264 196.017 11.324 196.465 11.324C196.873 11.324 197.209 11.28 197.473 11.192C197.737 11.104 197.933 10.98 198.061 10.82C198.189 10.66 198.253 10.468 198.253 10.244C198.253 10.028 198.173 9.864 198.013 9.752C197.853 9.632 197.601 9.536 197.257 9.464C196.913 9.384 196.461 9.304 195.901 9.224C195.461 9.16 195.045 9.072 194.653 8.96C194.261 8.84 193.913 8.688 193.609 8.504C193.313 8.32 193.077 8.096 192.901 7.832C192.733 7.56 192.649 7.24 192.649 6.872C192.649 6.416 192.777 6.016 193.033 5.672C193.297 5.328 193.685 5.06 194.197 4.868C194.709 4.676 195.337 4.58 196.081 4.58C197.201 4.58 198.061 4.82 198.661 5.3C199.269 5.772 199.565 6.424 199.549 7.256H197.989C197.957 6.784 197.757 6.444 197.389 6.236C197.029 6.028 196.573 5.924 196.021 5.924C195.509 5.924 195.085 6 194.749 6.152C194.421 6.304 194.257 6.564 194.257 6.932C194.257 7.076 194.297 7.204 194.377 7.316C194.457 7.42 194.593 7.512 194.785 7.592C194.977 7.672 195.237 7.748 195.565 7.82C195.893 7.892 196.301 7.964 196.789 8.036C197.245 8.1 197.657 8.188 198.025 8.3C198.401 8.404 198.721 8.544 198.985 8.72C199.257 8.888 199.465 9.104 199.609 9.368C199.753 9.632 199.825 9.956 199.825 10.34C199.825 10.812 199.701 11.224 199.453 11.576C199.213 11.92 198.837 12.188 198.325 12.38C197.821 12.572 197.165 12.668 196.357 12.668C195.781 12.668 195.273 12.608 194.833 12.488C194.393 12.36 194.013 12.192 193.693 11.984C193.373 11.776 193.113 11.548 192.913 11.3C192.713 11.052 192.569 10.804 192.481 10.556C192.401 10.308 192.369 10.084 192.385 9.884Z"/></svg>