<svg width="92" height="23" viewBox="0 0 92 23" fill="none" xmlns="http://www.w3.org/2000/svg">
<g clip-path="url(#clip0_63_362)">
<path d="M69.9872 7.92011H68.118C67.9007 7.92011 67.6933 7.82642 67.5487 7.66361L66.791 6.8077C66.6782 6.68036 66.5154 6.60669 66.3453 6.60669C66.1752 6.60669 66.0124 6.67946 65.8996 6.8077L65.2493 7.54264C65.0364 7.78277 64.7308 7.92102 64.4097 7.92102H54.1807C53.8896 8.75146 53.6995 9.62829 53.624 10.5388H63.2809C63.451 10.5388 63.6129 10.4696 63.7303 10.3468L64.6298 9.40908C64.7417 9.29174 64.8973 9.22535 65.0592 9.22535H65.0964C65.2665 9.22535 65.4294 9.29811 65.5421 9.42636L66.2998 10.2823C66.4444 10.4451 66.6509 10.5388 66.8692 10.5388H74.7516C74.6761 9.62829 74.486 8.75146 74.1949 7.92102H69.9872V7.92011Z" fill="#50E3C2"/>
<path d="M59.469 16.0406C59.6391 16.0406 59.801 15.9715 59.9183 15.8487L60.8179 14.9109C60.9297 14.7936 61.0853 14.7272 61.2472 14.7272H61.2845C61.4546 14.7272 61.6174 14.8 61.7302 14.9282L62.4878 15.7841C62.6325 15.9469 62.8389 16.0406 63.0572 16.0406H73.7392C74.1395 15.2138 74.4323 14.3261 74.607 13.3974H64.3543C64.1369 13.3974 63.9295 13.3037 63.7849 13.1409L63.0272 12.285C62.9144 12.1577 62.7516 12.084 62.5815 12.084C62.4114 12.084 62.2486 12.1568 62.1358 12.285L61.4855 13.0199C61.2727 13.2601 60.967 13.3983 60.646 13.3983H53.7705C53.9451 14.3279 54.238 15.2147 54.6382 16.0415H59.469V16.0406Z" fill="#50E3C2"/>
<path d="M67.047 5.0604C67.2171 5.0604 67.379 4.99128 67.4963 4.86848L68.3959 3.93072C68.5078 3.81338 68.6633 3.74698 68.8252 3.74698H68.8625C69.0326 3.74698 69.1954 3.81975 69.3082 3.948L70.0659 4.8039C70.2105 4.96672 70.417 5.0604 70.6353 5.0604H72.6663C70.7317 2.48905 67.6546 0.825439 64.1891 0.825439C60.7237 0.825439 57.6466 2.48905 55.7119 5.0604H67.0479H67.047Z" fill="#50E3C2"/>
<path d="M62.9663 18.6613H60.1885C59.9711 18.6613 59.7637 18.5676 59.6191 18.4048L58.8614 17.5489C58.7487 17.4216 58.5858 17.3479 58.4158 17.3479C58.2457 17.3479 58.0829 17.4207 57.9701 17.5489L57.3197 18.2839C57.1069 18.524 56.8013 18.6622 56.4802 18.6622H56.4365C58.3721 20.7361 61.1272 22.034 64.1879 22.034C67.2486 22.034 70.0037 20.7361 71.9393 18.6622H62.9663V18.6613Z" fill="#50E3C2"/>
<path d="M17.314 21.348L15.1565 16.108H5.51776L3.36026 21.348H0.866211L10.323 1.51025L19.808 21.348H17.314ZM6.33001 14.1187H14.316L10.3103 5.667L6.33092 14.1187H6.33001Z" fill="#50E3C2"/>
<path d="M23.252 21.348V1.51025H28.7721C33.0871 1.51025 35.3565 3.49949 35.3565 7.226C35.3565 10.9525 32.9471 12.8863 28.7439 12.8863H25.5777V21.348H23.252ZM25.5777 10.8124H28.2118C31.5463 10.8124 33.0035 9.72005 33.0035 7.226C33.0035 4.73196 31.5181 3.58317 28.2118 3.58317H25.5777V10.8124Z" fill="#50E3C2"/>
<path d="M43.8041 3.63956H36.9678V1.51025H52.9671V3.63956H46.1299V21.348H43.8041V3.63956Z" fill="#50E3C2"/>
<path d="M78.0263 17.7334L80.0292 16.3745L80.1838 16.6965C81.4163 18.9377 82.7615 19.8345 84.8072 19.8345C87.0765 19.8345 88.6737 18.2655 88.6737 16.36C88.6737 14.5663 87.7769 13.362 84.1905 11.8767C80.0719 10.1676 78.6703 8.40213 78.6703 5.8808C78.6703 3.1348 80.8278 0.977295 84.5543 0.977295C87.3003 0.977295 89.1776 2.15428 90.2428 4.05983L88.6174 5.18042L88.1407 5.06855C87.3003 3.75149 86.2634 2.99472 84.4979 2.99472C82.3404 2.99472 81.0797 4.19991 81.0797 5.8244C81.0797 7.33702 81.892 8.20566 85.3947 9.80287C89.9617 11.8767 91.0832 13.5858 91.0832 16.3318C91.0832 19.3297 88.5055 21.8792 84.8344 21.8792C81.7519 21.8792 79.6226 20.7023 78.0254 17.7325L78.0263 17.7334Z" fill="#50E3C2"/>
</g>
<defs>
<clipPath id="clip0_63_362">
<rect width="90.9571" height="22.3373" fill="white" transform="translate(0.477539 0.395996)"/>
</clipPath>
</defs>
</svg>
