<svg width="82" height="26" viewBox="0 0 82 26" fill="none" xmlns="http://www.w3.org/2000/svg">
<g clip-path="url(#clip0_63_381)">
<path d="M38.6004 19.0366L31.3635 12.6368V19.0366H28.8896V7.16577H28.9912L36.2004 13.7402V7.42321H38.6926V19.0273H38.6096L38.6004 19.0366Z" fill="#50E3C2"/>
<path d="M46.6191 7.16577C43.2745 7.16577 40.8369 9.8609 40.8369 13.216C40.8369 16.5712 43.2745 19.2663 46.6191 19.2663C49.9638 19.2663 52.4014 16.617 52.4014 13.216C52.4014 9.81504 49.9456 7.16577 46.6191 7.16577ZM46.6191 16.947C44.6215 16.947 43.2103 15.2786 43.2103 13.216C43.2103 11.1535 44.6215 9.48501 46.6191 9.48501C48.6168 9.48501 50.028 11.1717 50.028 13.216C50.028 15.2603 48.6168 16.947 46.6191 16.947Z" fill="#50E3C2"/>
<path d="M54.54 19.0359V7.47144H58.0469C62.0415 7.47144 64.5728 9.86313 64.5728 13.2536C64.5728 16.6442 62.0599 19.0359 58.0837 19.0359H54.54ZM57.0528 9.54238V16.9649H58.0469C60.5597 16.9649 62.0415 15.3612 62.0415 13.2536C62.0415 11.146 60.5596 9.54238 58.0101 9.54238H57.0436H57.0528Z" fill="#50E3C2"/>
<path d="M66.875 19.0359V7.47144H69.2491V19.0359H66.875Z" fill="#50E3C2"/>
<path d="M77.756 9.78062V19.0359H75.1984V9.78062H71.623V7.47144H81.3495V9.78062H77.756Z" fill="#50E3C2"/>
<path fill-rule="evenodd" clip-rule="evenodd" d="M16.6129 3.03049L11.425 0.0429688L9.15007 1.35231L0.549805 6.30385V18.8256L3.34258 20.43V7.90825L11.425 3.25178L13.8294 4.6349V16.7786L16.6221 15.1742V3.03049H16.6129ZM22.3001 6.30385L19.5074 4.69944V17.2212L11.425 21.8777L9.02058 20.4946V8.22174L6.22782 9.82618V22.099L11.4157 25.0865L22.2909 18.8256V6.30385H22.3001Z" fill="#50E3C2"/>
</g>
<defs>
<clipPath id="clip0_63_381">
<rect width="80.9725" height="25.1294" fill="white" transform="translate(0.549805)"/>
</clipPath>
</defs>
</svg>
